{"title":"Wolf Creek 2 2014 WEBrip XVID AC3 ACAB ","uid":10051360,"size":1533886768,"categoryP":"video","categoryS":"movies","magnet":"?xt=urn:btih:1961d3f011e3dbff7b4fb192872748cefbaaa2e8&amp;dn=Wolf+Creek+2+2014+WEBrip+XVID+AC3+ACAB+&amp;tr=udp%3A%2F%2Ftracker.openbittorrent.com%3A80&amp;tr=udp%3A%2F%2Fopen.demonii.com%3A1337&amp;tr=udp%3A%2F%2Ftracker.coppersurfer.tk%3A6969&amp;tr=udp%3A%2F%2Fexodus.desync.com%3A6969","seeders":1,"leechers":0,"uploader":"Xetron","files":2,"time":1398609600,"description":" &lt;a href=&quot;http://s1.postimg.org/lfop9ew9b/gfdgdfgdff.jpg&quot; rel=&quot;nofollow&quot; target=&quot;_NEW&quot;&gt;http://s1.postimg.org/lfop9ew9b/gfdgdfgdff.jpg&lt;/a&gt;\n\n\nFormat                                   : AVI\nFormat/Info                              : Audio Video Interleave\nFile size                                : 1.40 GiB\nDuration                                 : 1h 46mn\nOverall bit rate                         : 1 892 Kbps\nWriting library                          : VirtualDub build 30091/release\n\nVideo\nID                                       : 0\nFormat                                   : MPEG-4 Visual\nFormat profile                           : Advanced Simple@L5\nFormat settings, BVOP                    : 1\nFormat settings, QPel                    : No\nFormat settings, GMC                     : No warppoints\nFormat settings, Matrix                  : Default (H.263)\nMuxing mode                              : Packed bitstream\nCodec ID                                 : XVID\nCodec ID/Hint                            : XviD\nDuration                                 : 1h 46mn\nBit rate                                 : 1 498 Kbps\nWidth                                    : 720 pixels\nHeight                                   : 304 pixels\nDisplay aspect ratio                     : 2.35:1\nFrame rate                               : 23.976 fps\nColor space                              : YUV\nChroma subsampling                       : 4:2:0\nBit depth                                : 8 bits\nScan type                                : Progressive\nCompression mode                         : Lossy\nBits/(Pixel*Frame)                       : 0.286\nStream size                              : 1.11 GiB (79%)\nWriting library                          : XviD 1.2.1 (UTC 2008-12-04)\n\nAudio\nID                                       : 1\nFormat                                   : AC-3\nFormat/Info                              : Audio Coding 3\nMode extension                           : CM (complete main)\nFormat settings, Endianness              : Big\nCodec ID                                 : 2000\nDuration                                 : 1h 46mn\nBit rate mode                            : Constant\nBit rate                                 : 384 Kbps\nChannel(s)                               : 6 channels\nChannel positions                        : Front: L C R, Side: L R, LFE\nSampling rate                            : 48.0 KHz\nBit depth                                : 16 bits\nCompression mode                         : Lossy\nStream size                              : 292 MiB (20%)\n\n &lt;a href=&quot;\nhttp://img841.imageshack.us/img841/2687/jebm.png&quot; rel=&quot;nofollow&quot; target=&quot;_NEW&quot;&gt;\nhttp://img841.imageshack.us/img841/2687/jebm.png&lt;/a&gt; &lt;a href=&quot;\nhttp://img835.imageshack.us/img835/1738/x8fi.png&quot; rel=&quot;nofollow&quot; target=&quot;_NEW&quot;&gt;\nhttp://img835.imageshack.us/img835/1738/x8fi.png&lt;/a&gt; &lt;a href=&quot;\nhttp://img834.imageshack.us/img834/4075/jop3.png&quot; rel=&quot;nofollow&quot; target=&quot;_NEW&quot;&gt;\nhttp://img834.imageshack.us/img834/4075/jop3.png&lt;/a&gt; &lt;a href=&quot;\nhttp://img838.imageshack.us/img838/7488/mph9.png&quot; rel=&quot;nofollow&quot; target=&quot;_NEW&quot;&gt;\nhttp://img838.imageshack.us/img838/7488/mph9.png&lt;/a&gt;","torrent":{"xt":"urn:btih:1961d3f011e3dbff7b4fb192872748cefbaaa2e8","amp;dn":"Wolf+Creek+2+2014+WEBrip+XVID+AC3+ACAB+","amp;tr":["udp%3A%2F%2Ftracker.openbittorrent.com%3A80","udp%3A%2F%2Fopen.demonii.com%3A1337","udp%3A%2F%2Ftracker.coppersurfer.tk%3A6969","udp%3A%2F%2Fexodus.desync.com%3A6969"],"infoHash":"1961d3f011e3dbff7b4fb192872748cefbaaa2e8","infoHashBuffer":{"type":"Buffer","data":[25,97,211,240,17,227,219,255,123,79,177,146,135,39,72,206,251,170,162,232]},"announce":[],"urlList":[]}}